{"title":"The Hobbit The Desolation of Smaug 2013 BDRip 1080p HYPERHD.mkv","uid":9791916,"size":15347199504,"categoryP":"video","categoryS":"hd___movies","magnet":"?xt=urn:btih:0ab3d8e27763aefb19b137fd0967399d80f8fd13&amp;dn=The+Hobbit+The+Desolation+of+Smaug+2013+BDRip+1080p+HYPERHD.mkv&amp;tr=udp%3A%2F%2Ftracker.openbittorrent.com%3A80&amp;tr=udp%3A%2F%2Fopen.demonii.com%3A1337&amp;tr=udp%3A%2F%2Ftracker.coppersurfer.tk%3A6969&amp;tr=udp%3A%2F%2Fexodus.desync.com%3A6969","seeders":2,"leechers":1,"uploader":"ABSTAIN","files":1,"time":1395259815,"description":"\n\n\n [url=http://www.imdb.com/title/tt1170358/][img]http://tracker.0day.kiev.ua/imdb/imdb_tt1170358.gif[/img][/url]\n\n\nGeneral\nUnique ID                      : 248035900511726346717036729507388850040 (0xBA99FA10146FA14795E628C63E03FF78)\nComplete name                  : D:The Hobbit The Desolation of Smaug 2013 BDRip 1080p HYPERHD.mkv\nFormat                         : Matroska\nFormat version                 : Version 4 / Version 2\nFile size                      : 14.3 GiB\nDuration                       : 2h 41mn\nOverall bit rate               : 12.7 Mbps\nMovie name                     : The Hobbit: The Desolation of Smaug 2013 BDRip 1080p HYPERHD\nEncoded date                   : UTC 2014-03-19 12:52:05\nWriting application            : mkvmerge v6.8.0 ('Theme for Great Cities') 64bit built on Mar  2 2014 21:34:26\nWriting library                : libebml v1.3.0 + libmatroska v1.4.1\nAttachment                     : Yes\n\nVideo\nID                             : 1\nFormat                         : AVC\nFormat/Info                    : Advanced Video Codec\nFormat profile                 : &lt;a class=&quot;__cf_email__&quot; href=&quot;/cdn-cgi/l/email-protection&quot; data-cfemail=&quot;85cdece2edc5c9b1abb4&quot;&gt;[email&amp;#160;protected]&lt;/a&gt;&lt;script cf-hash='f9e31' type=&quot;text/javascript&quot;&gt;\n/* &lt;![CDATA[ */!function(){try{var t=&quot;currentScript&quot;in document?document.currentScript:function(){for(var t=document.getElementsByTagName(&quot;script&quot;),e=t.length;e--;)if(t[e].getAttribute(&quot;cf-hash&quot;))return t[e]}();if(t&amp;&amp;t.previousSibling){var e,r,n,i,c=t.previousSibling,a=c.getAttribute(&quot;data-cfemail&quot;);if(a){for(e=&quot;&quot;,r=parseInt(a.substr(0,2),16),n=2;a.length-n;n+=2)i=parseInt(a.substr(n,2),16)^r,e+=String.fromCharCode(i);e=document.createTextNode(e),c.parentNode.replaceChild(e,c)}}}catch(u){}}();/* ]]&gt; */&lt;/script&gt;\nFormat settings, CABAC         : Yes\nFormat settings, ReFrames      : 5 frames\nCodec ID                       : V_MPEG4/ISO/AVC\nDuration                       : 2h 41mn\nBit rate                       : 10.1 Mbps\nWidth                          : 1 920 pixels\nHeight                         : 800 pixels\nDisplay aspect ratio           : 2.40:1\nFrame rate mode                : Constant\nFrame rate                     : 23.976 fps\nColor space                    : YUV\nChroma subsampling             : 4:2:0\nBit depth                      : 8 bits\nScan type                      : Progressive\nBits/(Pixel*Frame)             : 0.274\nStream size                    : 11.4 GiB (80%)\nTitle                          : The Hobbit: The Desolation of Smaug 2013 BDRip 1080p HYPERHD\nLanguage                       : English\nDefault                        : Yes\nForced                         : No\n\nAudio #1\nID                             : 2\nFormat                         : AC-3\nFormat/Info                    : Audio Coding 3\nMode extension                 : CM (complete main)\nFormat settings, Endianness    : Big\nCodec ID                       : A_AC3\nDuration                       : 2h 41mn\nBit rate mode                  : Constant\nBit rate                       : 192 Kbps\nChannel count                  : 2 channels\nChannel positions              : Front: L R\nSampling rate                  : 48.0 KHz\nBit depth                      : 16 bits\nCompression mode               : Lossy\nStream size                    : 222 MiB (2%)\nTitle                          : VO Pashaup\nLanguage                       : Russian\nDefault                        : Yes\nForced                         : No\n\nAudio #2\nID                             : 3\nFormat                         : DTS\nFormat/Info                    : Digital Theater Systems\nMode                           : 16\nFormat settings, Endianness    : Big\nCodec ID                       : A_DTS\nDuration                       : 2h 41mn\nBit rate mode                  : Constant\nBit rate                       : 1 509 Kbps\nChannel count                  : 6 channels\nChannel positions              : Front: L C R, Side: L R, LFE\nSampling rate                  : 48.0 KHz\nBit depth                      : 24 bits\nCompression mode               : Lossy\nStream size                    : 1.70 GiB (12%)\nTitle                          : Original\nLanguage                       : English\nDefault                        : No\nForced                         : No\n\nAudio #3\nID                             : 4\nFormat                         : AC-3\nFormat/Info                    : Audio Coding 3\nMode extension                 : CM (complete main)\nFormat settings, Endianness    : Big\nCodec ID                       : A_AC3\nDuration                       : 2h 41mn\nBit rate mode                  : Constant\nBit rate                       : 640 Kbps\nChannel count                  : 6 channels\nChannel positions              : Front: L C R, Side: L R, LFE\nSampling rate                  : 48.0 KHz\nBit depth                      : 16 bits\nCompression mode               : Lossy\nStream size                    : 738 MiB (5%)\nTitle                          : Original\nLanguage                       : English\nDefault                        : No\nForced                         : No\n\nText #1\nID                             : 5\nFormat                         : UTF-8\nCodec ID                       : S_TEXT/UTF8\nCodec ID/Info                  : UTF-8 Plain Text\nTitle                          : Full\nLanguage                       : Russian\nDefault                        : No\nForced                         : No\n\nText #2\nID                             : 6\nFormat                         : PGS\nMuxing mode                    : zlib\nCodec ID                       : S_HDMV/PGS\nCodec ID/Info                  : The same subtitle format used on BDs/HD-DVDs\nTitle                          : SDH\nLanguage                       : English\nDefault                        : No\nForced                         : No\n\nText #3\nID                             : 7\nFormat                         : PGS\nMuxing mode                    : zlib\nCodec ID                       : S_HDMV/PGS\nCodec ID/Info                  : The same subtitle format used on BDs/HD-DVDs\nTitle                          : Full\nLanguage                       : French\nDefault                        : No\nForced                         : No\n\nText #4\nID                             : 8\nFormat                         : PGS\nMuxing mode                    : zlib\nCodec ID                       : S_HDMV/PGS\nCodec ID/Info                  : The same subtitle format used on BDs/HD-DVDs\nTitle                          : Full\nLanguage                       : Portuguese\nDefault                        : No\nForced                         : No\n\nText #5\nID                             : 9\nFormat                         : PGS\nMuxing mode                    : zlib\nCodec ID                       : S_HDMV/PGS\nCodec ID/Info                  : The same subtitle format used on BDs/HD-DVDs\nTitle                          : Full\nLanguage                       : Spanish\nDefault                        : No\nForced                         : No\n\nMenu\n00:00:00.000                   : en:00:00:00.000\n00:05:44.094                   : en:00:05:44.094\n00:10:10.985                   : en:00:10:10.985\n00:11:10.128                   : en:00:11:10.128\n00:13:50.204                   : en:00:13:50.204\n00:17:12.657                   : en:00:17:12.657\n00:21:25.326                   : en:00:21:25.326\n00:24:33.472                   : en:00:24:33.472\n00:33:03.273                   : en:00:33:03.273\n00:36:05.747                   : en:00:36:05.747\n00:39:38.960                   : en:00:39:38.960\n00:41:29.654                   : en:00:41:29.654\n00:44:27.290                   : en:00:44:27.290\n00:55:01.757                   : en:00:55:01.757\n00:58:41.768                   : en:00:58:41.768\n01:02:05.138                   : en:01:02:05.138\n01:05:29.592                   : en:01:05:29.592\n01:09:06.267                   : en:01:09:06.267\n01:11:29.118                   : en:01:11:29.118\n01:13:11.762                   : en:01:13:11.762\n01:19:14.959                   : en:01:19:14.959\n01:20:48.469                   : en:01:20:48.469\n01:23:12.529                   : en:01:23:12.529\n01:27:09.641                   : en:01:27:09.641\n01:30:45.482                   : en:01:30:45.482\n01:33:29.813                   : en:01:33:29.813\n01:41:57.194                   : en:01:41:57.194\n01:42:24.472                   : en:01:42:24.472\n01:44:08.033                   : en:01:44:08.033\n01:47:34.114                   : en:01:47:34.114\n01:56:46.333                   : en:01:56:46.333\n01:57:28.917                   : en:01:57:28.917\n01:58:03.410                   : en:01:58:03.410\n01:59:42.300                   : en:01:59:42.300\n02:01:30.575                   : en:02:01:30.575\n02:04:04.312                   : en:02:04:04.312\n02:07:58.462                   : en:02:07:58.462\n02:09:43.109                   : en:02:09:43.109\n02:10:58.642                   : en:02:10:58.642\n02:12:31.443                   : en:02:12:31.443\n02:13:54.318                   : en:02:13:54.318\n02:16:25.427                   : en:02:16:25.427\n02:18:51.490                   : en:02:18:51.490\n02:26:03.588                   : en:02:26:03.588\n02:30:51.209                   : en:02:30:51.209","torrent":{"xt":"urn:btih:0ab3d8e27763aefb19b137fd0967399d80f8fd13","amp;dn":"The+Hobbit+The+Desolation+of+Smaug+2013+BDRip+1080p+HYPERHD.mkv","amp;tr":["udp%3A%2F%2Ftracker.openbittorrent.com%3A80","udp%3A%2F%2Fopen.demonii.com%3A1337","udp%3A%2F%2Ftracker.coppersurfer.tk%3A6969","udp%3A%2F%2Fexodus.desync.com%3A6969"],"infoHash":"0ab3d8e27763aefb19b137fd0967399d80f8fd13","infoHashBuffer":{"type":"Buffer","data":[10,179,216,226,119,99,174,251,25,177,55,253,9,103,57,157,128,248,253,19]},"announce":[],"urlList":[]}}